<svg xmlns="http://www.w3.org/2000/svg" xmlns:xlink="http://www.w3.org/1999/xlink" viewBox="0 0 1483.92 432"><defs><style>.cls-1{isolation:isolate;}.cls-2,.cls-3{fill:#fff;}.cls-3,.cls-6{mix-blend-mode:multiply;}.cls-4{font-size:105.29px;fill:#606060;font-family:Clother-Regular, Clother;}.cls-5{fill:red;}.cls-6{fill:url(#linear-gradient);}</style><linearGradient id="linear-gradient" x1="219.33" y1="225.73" x2="148.39" y2="118.3" gradientUnits="userSpaceOnUse"><stop offset="0" stop-color="red" stop-opacity="0"/><stop offset="0.1" stop-color="#fd0000" stop-opacity="0.05"/><stop offset="0.27" stop-color="#f60000" stop-opacity="0.18"/><stop offset="0.49" stop-color="#eb0000" stop-opacity="0.39"/><stop offset="0.75" stop-color="#dc0000" stop-opacity="0.68"/><stop offset="1" stop-color="#c00"/></linearGradient></defs><g class="cls-1"><g id="Layer_2" data-name="Layer 2"><g id="Layer_1-2" data-name="Layer 1"><path class="cls-2" d="M550.6,89.73H515.21a8.91,8.91,0,0,1-8.9-8.9h0a8.9,8.9,0,0,1,8.9-8.9h90.91a8.89,8.89,0,0,1,8.9,8.9h0a8.9,8.9,0,0,1-8.9,8.9H570.73V208.19a8.9,8.9,0,0,1-8.9,8.9H559.5a8.9,8.9,0,0,1-8.9-8.9Z"/><path class="cls-2" d="M666.41,217.09h0a9.87,9.87,0,0,1-9.86-9.86V81.78a9.86,9.86,0,0,1,9.86-9.85h34.86q22,0,35.49,11.44t13.46,30.3a40,40,0,0,1-7.42,24,41.79,41.79,0,0,1-20.13,14.94l28.09,50.24a9.53,9.53,0,0,1-8.31,14.19h0a9.51,9.51,0,0,1-8.31-4.87L703,156.69h-26.7v50.54A9.86,9.86,0,0,1,666.41,217.09Zm63.47-102.78q0-11-7.53-17.8t-20-6.78H676.26v49.16h26.07q12.7,0,20.13-6.68T729.88,114.31Z"/><path class="cls-2" d="M881.81,217.09h-69.7a9.35,9.35,0,0,1-9.34-9.35V81.27a9.34,9.34,0,0,1,9.34-9.34h69.7a8.89,8.89,0,0,1,8.9,8.9h0a8.9,8.9,0,0,1-8.9,8.9H822.9v43.65h54a8.91,8.91,0,0,1,8.9,8.9h0a8.9,8.9,0,0,1-8.9,8.9h-54v48.1h58.91a8.9,8.9,0,0,1,8.9,8.91h0A8.9,8.9,0,0,1,881.81,217.09Z"/><path class="cls-2" d="M1040.55,217.09h0a12.72,12.72,0,0,1-10.57-5.66l-71.67-107.5V207.76a9.33,9.33,0,0,1-9.32,9.33h0a9.33,9.33,0,0,1-9.33-9.33V84.63a12.7,12.7,0,0,1,12.7-12.7h0a12.71,12.71,0,0,1,10.57,5.65l71.67,107.51V81.25a9.32,9.32,0,0,1,9.32-9.32h0a9.33,9.33,0,0,1,9.33,9.32V204.39A12.71,12.71,0,0,1,1040.55,217.09Z"/><path class="cls-2" d="M1146.91,217.09h-36V71.93h36q37.93,0,59.87,19.49t21.93,53.19q0,33.69-21.93,53.09T1146.91,217.09Zm61-72.48q0-25.64-15.89-40.05T1148,90.15h-17V199.07h17q28,0,44-14.51T1207.94,144.61Z"/><path class="cls-2" d="M1286.88,217.09h0A10.07,10.07,0,0,1,1276.81,207V82a10.06,10.06,0,0,1,10.07-10.06h0A10.05,10.05,0,0,1,1296.94,82V207A10.06,10.06,0,0,1,1286.88,217.09Z"/><path class="cls-2" d="M1462,217.09h-.69a9.3,9.3,0,0,1-8.62-5.83l-12.49-31H1373l-12.3,31a9.3,9.3,0,0,1-8.64,5.87h0a9.29,9.29,0,0,1-8.6-12.8L1393.71,81a14.48,14.48,0,0,1,13.42-9h0a14.49,14.49,0,0,1,13.42,9l50,123.34A9.29,9.29,0,0,1,1462,217.09ZM1406.71,96.3l-26.49,66.11h53Z"/><rect class="cls-3" x="550.6" y="89.73" width="20.13" height="11.54"/><path class="cls-3" d="M703,156.69a62.37,62.37,0,0,0,19.71-4l3.73,6.67-17.19,8.5Z"/><rect class="cls-3" x="822.9" y="133.38" width="17.09" height="17.8"/><path class="cls-2" d="M1034.6,185.09v30.52a12.94,12.94,0,0,1-4.28-3.7l-13-19.5,14.51-11.5Z"/><rect class="cls-3" x="1131.02" y="199.07" width="17.29" height="18.01"/><polygon class="cls-3" points="1380.22 162.41 1373.02 180.21 1400.3 180.21 1400.3 162.41 1380.22 162.41"/><text class="cls-4" transform="translate(546.45 360.27)">SUCCES MAKERS</text><circle class="cls-2" cx="216" cy="216" r="216"/><path class="cls-5" d="M177,324.41a18.75,18.75,0,0,1-28.1-16.29L149,216l.17-92.16a18.75,18.75,0,0,1,28.16-16.18l79.72,46.23L318.2,189.3l18.6,10.78a18.75,18.75,0,0,1-.06,32.48l-79.9,45.93Z"/><path class="cls-6" d="M236,141.59,149,228.53,149,216l.17-92.16a18.76,18.76,0,0,1,28.16-16.19Z"/></g></g></g></svg>